HIERARCHY
ROOT joint_Root
{
	OFFSET 0.0 0.0 0.0
	CHANNELS 6 Xposition Yposition Zposition Zrotation Xrotation Yrotation 
	JOINT Hips
	{
		OFFSET -0.726466 93.3139 -2.00062
		CHANNELS 6 Xposition Yposition Zposition Zrotation Xrotation Yrotation 
		JOINT Spine
		{
			OFFSET 15.7357 0.0 0.0
			CHANNELS 6 Xposition Yposition Zposition Zrotation Xrotation Yrotation 
			JOINT Chest
			{
				OFFSET 8.98455 -0.406207 0.0
				CHANNELS 6 Xposition Yposition Zposition Zrotation Xrotation Yrotation 
				JOINT Neck
				{
					OFFSET 16.3773 0.0 0.0
					CHANNELS 6 Xposition Yposition Zposition Zrotation Xrotation Yrotation 
					JOINT Head
					{
						OFFSET 6.45672 0.0 0.0
						CHANNELS 6 Xposition Yposition Zposition Zrotation Xrotation Yrotation 
						End Site
						{
							OFFSET 0.0 0.0 0.0
						}
					}
				}
				JOINT Shoulder_L
				{
					OFFSET 12.9942 -0.242716 4.98039
					CHANNELS 6 Xposition Yposition Zposition Zrotation Xrotation Yrotation 
					JOINT UpperArm_L
					{
						OFFSET 5.34809 0.0 0.0
						CHANNELS 6 Xposition Yposition Zposition Zrotation Xrotation Yrotation 
						JOINT LowerArm_L
						{
							OFFSET 24.3286 1.87007e-05 0.0
							CHANNELS 6 Xposition Yposition Zposition Zrotation Xrotation Yrotation 
							JOINT Hand_L
							{
								OFFSET 22.2916 0.0 0.0
								CHANNELS 6 Xposition Yposition Zposition Zrotation Xrotation Yrotation 
								End Site
								{
									OFFSET 0.0 0.0 0.0
								}
							}
						}
					}
				}
				JOINT Shoulder_R
				{
					OFFSET 12.9945 -0.242716 -4.98039
					CHANNELS 6 Xposition Yposition Zposition Zrotation Xrotation Yrotation 
					JOINT UpperArm_R
					{
						OFFSET -5.34813 0.0 0.0
						CHANNELS 6 Xposition Yposition Zposition Zrotation Xrotation Yrotation 
						JOINT LowerArm_R
						{
							OFFSET -24.3289 0.000322201 0.0
							CHANNELS 6 Xposition Yposition Zposition Zrotation Xrotation Yrotation 
							JOINT Hand_R
							{
								OFFSET -22.2915 -0.000108084 0.0
								CHANNELS 6 Xposition Yposition Zposition Zrotation Xrotation Yrotation 
								End Site
								{
									OFFSET 0.0 0.0 0.0
								}
							}
						}
					}
				}
			}
		}
		JOINT UpperLeg_L
		{
			OFFSET -2.19248 -6.46944 0.0
			CHANNELS 6 Xposition Yposition Zposition Zrotation Xrotation Yrotation 
			JOINT LowerLeg_L
			{
				OFFSET 39.0811 0.0 -1.23785e-05
				CHANNELS 6 Xposition Yposition Zposition Zrotation Xrotation Yrotation 
				JOINT Foot_L
				{
					OFFSET 40.9854 0.0 -1.26872e-05
					CHANNELS 6 Xposition Yposition Zposition Zrotation Xrotation Yrotation 
					JOINT Toes_L
					{
						OFFSET 11.7543 0.0 0.0
						CHANNELS 6 Xposition Yposition Zposition Zrotation Xrotation Yrotation 
						End Site
						{
							OFFSET 0.0 0.0 0.0
						}
					}
				}
			}
		}
		JOINT UpperLeg_R
		{
			OFFSET -2.19251 6.46944 0.0
			CHANNELS 6 Xposition Yposition Zposition Zrotation Xrotation Yrotation 
			JOINT LowerLeg_R
			{
				OFFSET -39.0811 -0.00228153 -0.0401928
				CHANNELS 6 Xposition Yposition Zposition Zrotation Xrotation Yrotation 
				JOINT Foot_R
				{
					OFFSET -40.9854 0.0 0.0
					CHANNELS 6 Xposition Yposition Zposition Zrotation Xrotation Yrotation 
					JOINT Toes_R
					{
						OFFSET -11.7543 0.0 0.0
						CHANNELS 6 Xposition Yposition Zposition Zrotation Xrotation Yrotation 
						End Site
						{
							OFFSET 0.0 0.0 0.0
						}
					}
				}
			}
		}
	}
}
MOTION
Frames:	5
Frame Time:	0.0333333
0.000000 0.000000 0.000000 0.000000 0.000000 -0.000000 -0.651772 93.082600 -0.891309 89.179500 -1.671620 0.219316 15.735700 0.000005 -0.000001 94.369700 87.407300 -94.325800 8.984550 -0.406207 -0.000000 -2.595850 0.390976 0.096649 16.377300 -0.000001 -0.000001 3.669460 -2.320720 3.133170 6.456720 -0.000001 -0.000000 9.022140 -1.009390 -3.670940 12.994200 -0.242716 4.980390 -90.324900 0.883544 -69.809900 5.348090 -0.000007 -0.000001 -71.247200 35.597800 -7.749640 24.328600 0.000019 0.000005 3.681700 8.794490 -22.824400 22.291600 -0.000001 0.000005 4.461160 5.488760 -6.086610 12.994500 -0.242716 -4.980390 87.652300 6.459650 -69.977700 -5.348130 -0.000001 -0.000004 -67.520800 37.391100 -6.703280 -24.328900 0.000322 -0.000009 4.139660 9.868470 -22.897100 -22.291500 -0.000108 -0.000004 6.473610 5.362610 -1.755900 -2.192480 -6.469440 -0.000000 -176.744000 -7.012820 -3.298250 39.081100 -0.000007 -0.000012 -0.058652 0.210940 15.538600 40.985400 -0.000006 -0.000013 -0.972297 2.735890 -62.160700 11.754300 -0.000000 0.000003 -0.000000 -0.000005 -16.577700 -2.192510 6.469440 -0.000001 179.217000 10.744900 179.709000 -39.081100 -0.002282 -0.040193 -0.022462 0.116920 12.442300 -40.985400 0.000008 0.000006 2.090180 6.359430 -62.384000 -11.754300 -0.000006 -0.000006 -0.004351 -0.055044 -18.812300
0.000000 0.000000 0.000000 0.000000 0.000000 -0.000000 -0.586783 93.095600 -0.928665 89.155900 -1.840210 0.187969 15.735700 0.000005 -0.000001 94.347600 87.371700 -94.310300 8.984550 -0.406207 -0.000000 -2.524650 0.395004 0.083269 16.377300 -0.000001 -0.000001 3.488840 -2.294080 3.127310 6.456720 -0.000001 -0.000000 8.476300 -0.926135 -3.855130 12.994200 -0.242716 4.980390 -90.324200 0.879369 -69.760000 5.348090 -0.000007 -0.000001 -71.283900 35.693700 -7.720100 24.328600 0.000019 0.000005 3.658500 8.708280 -22.894700 22.291600 -0.000001 0.000005 4.493710 5.490590 -6.159090 12.994500 -0.242716 -4.980390 87.610300 6.533980 -69.859800 -5.348130 -0.000001 -0.000004 -66.587400 36.775800 -6.887080 -24.328900 0.000322 -0.000009 5.442430 10.959100 -26.618900 -22.291500 -0.000108 -0.000004 5.003040 5.332510 -0.850844 -2.192480 -6.469440 -0.000000 -176.771000 -7.101910 -3.304900 39.081100 -0.000007 -0.000012 -0.058001 0.209575 15.469700 40.985400 -0.000006 -0.000013 -0.939961 2.670250 -62.114300 11.754300 -0.000000 0.000003 -0.000000 -0.000002 -16.577500 -2.192510 6.469440 -0.000001 179.170000 11.120100 179.681000 -39.081100 -0.002282 -0.040193 -0.019984 0.106395 12.362300 -40.985400 0.000008 0.000006 2.233520 6.889550 -62.330600 -11.754300 -0.000006 -0.000006 -0.004601 -0.057556 -18.914700
0.000000 0.000000 0.000000 0.000000 0.000000 -0.000000 -0.511175 93.120700 -0.988466 89.095600 -2.156190 0.119936 15.735700 0.000005 -0.000001 94.279800 87.338300 -94.238400 8.984550 -0.406207 -0.000000 -2.457740 0.393435 0.091379 16.377300 -0.000001 -0.000001 3.277260 -2.203550 3.041010 6.456720 -0.000001 -0.000000 7.796470 -0.772049 -4.007320 12.994200 -0.242716 4.980390 -90.334900 0.906680 -69.724800 5.348090 -0.000007 -0.000001 -71.323500 35.786400 -7.644030 24.328600 0.000019 0.000005 3.571820 8.482610 -22.936200 22.291600 -0.000001 0.000005 4.436420 5.491730 -6.203820 12.994500 -0.242716 -4.980390 87.554900 6.611180 -69.650400 -5.348130 -0.000001 -0.000004 -65.294400 35.266200 -7.282010 -24.328900 0.000322 -0.000009 6.893670 10.982700 -32.404000 -22.291500 -0.000108 -0.000004 4.062340 5.309810 -0.204538 -2.192480 -6.469440 -0.000000 -176.776000 -7.318210 -3.299800 39.081100 -0.000007 -0.000012 -0.057950 0.211537 15.320100 40.985400 -0.000006 -0.000013 -0.907049 2.556460 -62.027400 11.754300 -0.000000 0.000003 -0.000001 -0.000008 -16.577800 -2.192510 6.469440 -0.000001 179.199000 11.306900 179.642000 -39.081100 -0.002282 -0.040193 -0.014876 0.084396 12.177000 -40.985400 0.000008 0.000006 2.540810 7.353600 -62.227100 -11.754300 -0.000006 -0.000006 -0.004363 -0.055168 -18.817400
0.000000 0.000000 0.000000 0.000000 0.000000 -0.000000 -0.402774 93.133200 -1.063580 89.033100 -2.606860 0.083791 15.735700 0.000005 -0.000001 94.148600 87.281100 -94.106400 8.984550 -0.406207 -0.000000 -2.342720 0.389545 0.092422 16.377300 -0.000001 -0.000001 3.035070 -2.061440 2.926700 6.456720 -0.000001 -0.000000 6.972850 -0.515600 -4.221170 12.994200 -0.242716 4.980390 -90.360500 0.975713 -69.724300 5.348090 -0.000007 -0.000001 -71.325800 35.791100 -7.512970 24.328600 0.000019 0.000005 3.619120 8.553240 -23.038400 22.291600 -0.000001 0.000005 4.404640 5.492810 -6.247040 12.994500 -0.242716 -4.980390 87.502300 6.649020 -69.357100 -5.348130 -0.000001 -0.000004 -63.687600 33.075000 -8.042070 -24.328900 0.000322 -0.000009 8.502380 10.177200 -40.235400 -22.291500 -0.000108 -0.000004 5.037130 5.312390 -0.278967 -2.192480 -6.469440 -0.000000 -176.805000 -7.638160 -3.331050 39.081100 -0.000007 -0.000012 -0.056534 0.206385 15.319000 40.985400 -0.000006 -0.000013 -0.847583 2.410830 -62.017000 11.754300 -0.000000 0.000003 -0.000000 -0.000007 -16.577700 -2.192510 6.469440 -0.000001 179.190000 11.270500 179.530000 -39.081100 -0.002282 -0.040193 -0.012752 0.074792 12.139000 -40.985400 0.000008 0.000006 2.684670 7.760790 -62.144200 -11.754300 -0.000006 -0.000006 -0.004631 -0.057845 -18.926400
0.000000 0.000000 0.000000 0.000000 0.000000 -0.000000 -0.260319 93.150800 -1.168680 88.972200 -3.273850 0.064241 15.735700 0.000005 -0.000001 93.864500 87.214300 -93.820900 8.984550 -0.406207 -0.000000 -2.207500 0.371596 0.094341 16.377300 -0.000001 -0.000001 2.813570 -1.842920 2.801620 6.456720 -0.000001 -0.000000 5.969410 -0.068520 -4.568360 12.994200 -0.242716 4.980390 -90.377800 1.018540 -69.650300 5.348090 -0.000007 -0.000001 -71.400200 35.672600 -7.334420 24.328600 0.000019 0.000005 3.606880 8.495240 -23.107700 22.291600 -0.000001 0.000005 4.137370 5.490870 -6.169430 12.994500 -0.242716 -4.980390 87.488600 6.615260 -69.157100 -5.348130 -0.000001 -0.000004 -61.982200 30.083100 -9.324140 -24.328900 0.000322 -0.000009 10.989900 9.303950 -50.208400 -22.291500 -0.000108 -0.000004 6.853220 5.300650 0.049844 -2.192480 -6.469440 -0.000000 -176.861000 -8.104250 -3.303790 39.081100 -0.000007 -0.000012 -0.055453 0.203195 15.264400 40.985400 -0.000006 -0.000013 -0.777431 2.173760 -61.988000 11.754300 -0.000000 0.000003 -0.000000 -0.000004 -16.577600 -2.192510 6.469440 -0.000001 179.166000 10.971500 179.420000 -39.081100 -0.002282 -0.040193 -0.010077 0.062820 12.051600 -40.985400 0.000008 0.000006 2.715040 8.142620 -61.983600 -11.754300 -0.000006 -0.000006 -0.004642 -0.057955 -18.930900
